REM DIRINDEX 1\2\3,1\2\4,1\2\5,1\2\6
REM DIRNAME cjc157,folder01,folder02,folder03,folder04,folder05
TITLE ""
FILE "005 005.mp3" MP3
  TRACK 01 AUDIO
    TITLE "0:"
    INDEX 01 00:00:00
  TRACK 02 AUDIO
    TITLE "3:cjc157_0125"
    INDEX 01 00:00:13
  TRACK 03 AUDIO
    TITLE "0:"
    INDEX 01 00:01:28
  TRACK 04 AUDIO
    TITLE "4:cjc157_0126"
    INDEX 01 00:01:73
  TRACK 05 AUDIO
    TITLE "0:"
    INDEX 01 00:03:15
  TRACK 06 AUDIO
    TITLE "5:cjc157_0127"
    INDEX 01 00:03:57
  TRACK 07 AUDIO
    TITLE "0:"
    INDEX 01 00:06:04
  TRACK 08 AUDIO
    TITLE "3:cjc157_0128"
    INDEX 01 00:06:51
  TRACK 09 AUDIO
    TITLE "0:"
    INDEX 01 00:08:13
  TRACK 10 AUDIO
    TITLE "4:cjc157_0129"
    INDEX 01 00:08:56
  TRACK 11 AUDIO
    TITLE "0:"
    INDEX 01 00:09:57
  TRACK 12 AUDIO
    TITLE "5:cjc157_0130"
    INDEX 01 00:10:27
  TRACK 13 AUDIO
    TITLE "0:"
    INDEX 01 00:12:71
  TRACK 14 AUDIO
    TITLE "5:cjc157_0131"
    INDEX 01 00:13:41
  TRACK 15 AUDIO
    TITLE "0:"
    INDEX 01 00:15:56
  TRACK 16 AUDIO
    TITLE "3:cjc157_0132"
    INDEX 01 00:16:24
  TRACK 17 AUDIO
    TITLE "0:"
    INDEX 01 00:17:55
  TRACK 18 AUDIO
    TITLE "4:cjc157_0133"
    INDEX 01 00:18:25
  TRACK 19 AUDIO
    TITLE "0:"
    INDEX 01 00:19:42
  TRACK 20 AUDIO
    TITLE "5:cjc157_0134"
    INDEX 01 00:20:10
  TRACK 21 AUDIO
    TITLE "0:"
    INDEX 01 00:22:01
  TRACK 22 AUDIO
    TITLE "5:cjc157_0135"
    INDEX 01 00:22:52
  TRACK 23 AUDIO
    TITLE "0:"
    INDEX 01 00:25:03
  TRACK 24 AUDIO
    TITLE "3:cjc157_0136"
    INDEX 01 00:25:48
  TRACK 25 AUDIO
    TITLE "0:"
    INDEX 01 00:27:16
  TRACK 26 AUDIO
    TITLE "4:cjc157_0137"
    INDEX 01 00:27:63
  TRACK 27 AUDIO
    TITLE "0:"
    INDEX 01 00:29:03
  TRACK 28 AUDIO
    TITLE "5:cjc157_0138"
    INDEX 01 00:29:54
  TRACK 29 AUDIO
    TITLE "0:"
    INDEX 01 00:32:21
  TRACK 30 AUDIO
    TITLE "3:cjc157_0139"
    INDEX 01 00:32:66
  TRACK 31 AUDIO
    TITLE "0:"
    INDEX 01 00:34:16
  TRACK 32 AUDIO
    TITLE "4:cjc157_0140"
    INDEX 01 00:34:63
  TRACK 33 AUDIO
    TITLE "0:"
    INDEX 01 00:37:50
  TRACK 34 AUDIO
    TITLE "5:cjc157_0141"
    INDEX 01 00:38:16
  TRACK 35 AUDIO
    TITLE "0:"
    INDEX 01 00:41:02
  TRACK 36 AUDIO
    TITLE "5:cjc157_0142"
    INDEX 01 00:41:47
  TRACK 37 AUDIO
    TITLE "0:"
    INDEX 01 00:43:62
  TRACK 38 AUDIO
    TITLE "3:cjc157_0143"
    INDEX 01 00:44:30
  TRACK 39 AUDIO
    TITLE "0:"
    INDEX 01 00:45:67
  TRACK 40 AUDIO
    TITLE "4:cjc157_0144"
    INDEX 01 00:46:39
  TRACK 41 AUDIO
    TITLE "0:"
    INDEX 01 00:47:52
  TRACK 42 AUDIO
    TITLE "5:cjc157_0145"
    INDEX 01 00:48:24
  TRACK 43 AUDIO
    TITLE "0:"
    INDEX 01 00:49:59
  TRACK 44 AUDIO
    TITLE "5:cjc157_0146"
    INDEX 01 00:50:31
  TRACK 45 AUDIO
    TITLE "0:"
    INDEX 01 00:52:06
  TRACK 46 AUDIO
    TITLE "3:cjc157_0147"
    INDEX 01 00:52:49
  TRACK 47 AUDIO
    TITLE "0:"
    INDEX 01 00:53:72
  TRACK 48 AUDIO
    TITLE "4:cjc157_0148"
    INDEX 01 00:54:42
  TRACK 49 AUDIO
    TITLE "0:"
    INDEX 01 00:55:46
  TRACK 50 AUDIO
    TITLE "5:cjc157_0149"
    INDEX 01 00:56:16
  TRACK 51 AUDIO
    TITLE "0:"
    INDEX 01 00:58:13
  TRACK 52 AUDIO
    TITLE "5:cjc157_0150"
    INDEX 01 00:58:58
  TRACK 53 AUDIO
    TITLE "0:"
    INDEX 01 01:01:07
  TRACK 54 AUDIO
    TITLE "5:cjc157_0151"
    INDEX 01 01:01:50
  TRACK 55 AUDIO
    TITLE "0:"
    INDEX 01 01:02:73
  TRACK 56 AUDIO
    TITLE "3:cjc157_0152"
    INDEX 01 01:03:43
  TRACK 57 AUDIO
    TITLE "0:"
    INDEX 01 01:05:09
  TRACK 58 AUDIO
    TITLE "4:cjc157_0153"
    INDEX 01 01:05:50
  TRACK 59 AUDIO
    TITLE "0:"
    INDEX 01 01:06:57
  TRACK 60 AUDIO
    TITLE "5:cjc157_0154"
    INDEX 01 01:07:23
  TRACK 61 AUDIO
    TITLE "0:"
    INDEX 01 01:09:46
  TRACK 62 AUDIO
    TITLE "5:cjc157_0155"
    INDEX 01 01:10:14
  TRACK 63 AUDIO
    TITLE "0:"
    INDEX 01 01:11:43
  TRACK 64 AUDIO
    TITLE "3:cjc157_0156"
    INDEX 01 01:12:13
  TRACK 65 AUDIO
    TITLE "0:"
    INDEX 01 01:13:47
  TRACK 66 AUDIO
    TITLE "4:cjc157_0157"
    INDEX 01 01:14:19
  TRACK 67 AUDIO
    TITLE "0:"
    INDEX 01 01:15:50
  TRACK 68 AUDIO
    TITLE "5:cjc157_0158"
    INDEX 01 01:16:20
  TRACK 69 AUDIO
    TITLE "0:"
    INDEX 01 01:18:35
  TRACK 70 AUDIO
    TITLE "3:cjc157_0159"
    INDEX 01 01:19:11
  TRACK 71 AUDIO
    TITLE "0:"
    INDEX 01 01:20:32
  TRACK 72 AUDIO
    TITLE "4:cjc157_0160"
    INDEX 01 01:21:04
  TRACK 73 AUDIO
    TITLE "0:"
    INDEX 01 01:22:05
  TRACK 74 AUDIO
    TITLE "5:cjc157_0161"
    INDEX 01 01:22:52
  TRACK 75 AUDIO
    TITLE "0:"
    INDEX 01 01:24:73
